HIERARCHY
ROOT m_avg_root
{
	OFFSET 0.000000 0.000000 0.000000
	CHANNELS 6 Xposition Yposition Zposition Xrotation Yrotation Zrotation
	JOINT m_avg_Pelvis
	{
		OFFSET -0.002174 0.972724 0.028584
		CHANNELS 6 Xposition Yposition Zposition Xrotation Yrotation Zrotation
		JOINT m_avg_L_Hip
		{
			OFFSET 0.058581 -0.082280 -0.017664
			CHANNELS 6 Xposition Yposition Zposition Xrotation Yrotation Zrotation
			JOINT m_avg_L_Knee
			{
				OFFSET 0.043451 -0.386469 0.008037
				CHANNELS 6 Xposition Yposition Zposition Xrotation Yrotation Zrotation
				JOINT m_avg_L_Ankle
				{
					OFFSET -0.014790 -0.426874 -0.037428
					CHANNELS 6 Xposition Yposition Zposition Xrotation Yrotation Zrotation
					JOINT m_avg_L_Foot
					{
						OFFSET 0.041054 -0.060286 0.122042
						CHANNELS 6 Xposition Yposition Zposition Xrotation Yrotation Zrotation
						End Site
						{
							OFFSET 0.000000 0.142177 0.000000
						}
					}
				}
			}
		}
		JOINT m_avg_R_Hip
		{
			OFFSET -0.060310 -0.090513 -0.013543
			CHANNELS 6 Xposition Yposition Zposition Xrotation Yrotation Zrotation
			JOINT m_avg_R_Knee
			{
				OFFSET -0.043257 -0.383688 -0.004843
				CHANNELS 6 Xposition Yposition Zposition Xrotation Yrotation Zrotation
				JOINT m_avg_R_Ankle
				{
					OFFSET 0.019056 -0.420046 -0.034562
					CHANNELS 6 Xposition Yposition Zposition Xrotation Yrotation Zrotation
					JOINT m_avg_R_Foot
					{
						OFFSET -0.034840 -0.062106 0.130323
						CHANNELS 6 Xposition Yposition Zposition Xrotation Yrotation Zrotation
						End Site
						{
							OFFSET 0.000000 0.148510 0.000000
						}
					}
				}
			}
		}
		JOINT m_avg_Spine1
		{
			OFFSET 0.004439 0.124404 -0.038385
			CHANNELS 6 Xposition Yposition Zposition Xrotation Yrotation Zrotation
			JOINT m_avg_Spine2
			{
				OFFSET 0.004488 0.137956 0.026820
				CHANNELS 6 Xposition Yposition Zposition Xrotation Yrotation Zrotation
				JOINT m_avg_Spine3
				{
					OFFSET -0.002265 0.056032 0.002855
					CHANNELS 6 Xposition Yposition Zposition Xrotation Yrotation Zrotation
					JOINT m_avg_Neck
					{
						OFFSET -0.013390 0.211635 -0.033468
						CHANNELS 6 Xposition Yposition Zposition Xrotation Yrotation Zrotation
						JOINT m_avg_Head
						{
							OFFSET 0.010113 0.088937 0.050410
							CHANNELS 6 Xposition Yposition Zposition Xrotation Yrotation Zrotation
							End Site
							{
								OFFSET 0.000000 0.102729 0.000000
							}
						}
					}
					JOINT m_avg_L_Collar
					{
						OFFSET 0.071702 0.114000 -0.018898
						CHANNELS 6 Xposition Yposition Zposition Xrotation Yrotation Zrotation
						JOINT m_avg_L_Shoulder
						{
							OFFSET 0.122921 0.045205 -0.019046
							CHANNELS 6 Xposition Yposition Zposition Xrotation Yrotation Zrotation
							JOINT m_avg_L_Elbow
							{
								OFFSET 0.255332 -0.015649 -0.022946
								CHANNELS 6 Xposition Yposition Zposition Xrotation Yrotation Zrotation
								JOINT m_avg_L_Wrist
								{
									OFFSET 0.265709 0.012698 -0.007375
									CHANNELS 6 Xposition Yposition Zposition Xrotation Yrotation Zrotation
									JOINT m_avg_L_Hand
									{
										OFFSET 0.086691 -0.010636 -0.015594
										CHANNELS 6 Xposition Yposition Zposition Xrotation Yrotation Zrotation
										End Site
										{
											OFFSET 0.000000 0.088722 0.000000
										}
									}
								}
							}
						}
					}
					JOINT m_avg_R_Collar
					{
						OFFSET -0.082954 0.112472 -0.023707
						CHANNELS 6 Xposition Yposition Zposition Xrotation Yrotation Zrotation
						JOINT m_avg_R_Shoulder
						{
							OFFSET -0.113228 0.046853 -0.008472
							CHANNELS 6 Xposition Yposition Zposition Xrotation Yrotation Zrotation
							JOINT m_avg_R_Elbow
							{
								OFFSET -0.260127 -0.014369 -0.031269
								CHANNELS 6 Xposition Yposition Zposition Xrotation Yrotation Zrotation
								JOINT m_avg_R_Wrist
								{
									OFFSET -0.269108 0.006794 -0.006027
									CHANNELS 6 Xposition Yposition Zposition Xrotation Yrotation Zrotation
									JOINT m_avg_R_Hand
									{
										OFFSET -0.088754 -0.008652 -0.010107
										CHANNELS 6 Xposition Yposition Zposition Xrotation Yrotation Zrotation
										End Site
										{
											OFFSET 0.000000 0.089745 0.000000
										}
									}
								}
							}
						}
					}
				}
			}
		}
	}
}
MOTION
Frames: 4
Frame Time: 0.041667
0.000000 0.000000 0.000000 -0.000000 0.000000 -0.000000 -0.002174 0.972724 0.028584 -0.000000 0.000000 -0.000000 0.058581 -0.082280 -0.017664 25.061419 34.341375 26.134754 0.043451 -0.386469 0.008037 23.979517 31.152404 24.992690 -0.014790 -0.426874 -0.037428 26.939675 33.345554 18.945227 0.041054 -0.060286 0.122042 27.261505 38.579255 18.467423 -0.060310 -0.090513 -0.013543 24.132291 36.400783 24.675395 -0.043257 -0.383688 -0.004843 28.523270 38.038075 17.999582 0.019056 -0.420046 -0.034562 20.997730 29.276499 25.345434 -0.034840 -0.062106 0.130323 23.727457 31.371202 25.314976 0.004439 0.124404 -0.038385 18.986654 31.315895 31.338305 0.004488 0.137956 0.026820 25.723659 33.835900 25.471280 -0.002265 0.056032 0.002855 25.899196 41.344740 19.521082 -0.013390 0.211635 -0.033468 30.084077 41.734102 26.730666 0.010113 0.088937 0.050410 9.268866 36.305160 27.103663 0.071703 0.114000 -0.018898 20.984233 34.415472 20.002578 0.122921 0.045205 -0.019046 26.597974 22.087829 23.497048 0.255332 -0.015649 -0.022947 26.348735 33.452853 17.640632 0.265709 0.012698 -0.007375 30.729199 39.675797 21.257926 0.086691 -0.010636 -0.015594 18.957033 46.077655 21.575663 -0.082954 0.112472 -0.023707 18.366971 32.390294 32.315483 -0.113228 0.046853 -0.008472 27.362716 36.320156 15.276336 -0.260128 -0.014369 -0.031269 25.011410 29.706986 18.287034 -0.269108 0.006794 -0.006027 24.304152 39.743061 18.699335 -0.088754 -0.008651 -0.010107 24.600550 32.937706 14.397667 
0.000000 0.000000 0.000000 -0.000000 0.000000 -0.000000 -0.002174 0.972724 0.028584 -0.000000 0.000000 -0.000000 0.058581 -0.082280 -0.017664 22.499668 39.903447 25.036304 0.043451 -0.386470 0.008037 22.363038 34.707343 21.676164 -0.014790 -0.426874 -0.037428 17.719536 31.857816 25.099784 0.041054 -0.060286 0.122042 13.431087 32.858848 27.590464 -0.060310 -0.090513 -0.013543 33.686947 34.013109 16.860938 -0.043257 -0.383688 -0.004843 11.583337 32.932932 27.200679 0.019056 -0.420046 -0.034562 20.894203 36.635291 28.175685 -0.034840 -0.062106 0.130323 26.474341 29.694360 25.352972 0.004439 0.124404 -0.038385 24.372898 31.414082 19.325356 0.004488 0.137956 0.026820 16.982538 28.076495 35.137212 -0.002265 0.056033 0.002855 23.079073 30.146239 21.670013 -0.013390 0.211636 -0.033468 33.534975 33.333721 16.880369 0.010113 0.088937 0.050410 26.186411 34.143060 21.579047 0.071702 0.114000 -0.018898 20.619977 39.758261 22.055403 0.122921 0.045205 -0.019046 18.846727 35.194927 26.570628 0.255332 -0.015649 -0.022946 26.197424 22.952671 16.375414 0.265709 0.012698 -0.007375 28.037182 29.596285 21.783027 0.086691 -0.010636 -0.015594 27.456059 35.383283 24.284331 -0.082954 0.112472 -0.023707 20.578858 39.203951 25.550442 -0.113228 0.046853 -0.008472 24.341845 34.541619 20.875725 -0.260127 -0.014369 -0.031268 19.677087 40.982139 21.204520 -0.269108 0.006794 -0.006027 24.185577 37.972525 25.034754 -0.088754 -0.008651 -0.010107 22.657978 29.787418 18.034324 
0.000000 0.000000 0.000000 -0.000000 0.000000 -0.000000 -0.002174 0.972724 0.028584 -0.000000 0.000000 -0.000000 0.058581 -0.082280 -0.017664 27.795854 30.609534 18.477333 0.043451 -0.386470 0.008037 20.417932 36.810365 28.784716 -0.014790 -0.426874 -0.037428 22.499475 32.007288 19.447067 0.041054 -0.060286 0.122042 28.524342 33.319483 15.966996 -0.060310 -0.090513 -0.013543 24.805034 34.641094 27.011153 -0.043257 -0.383688 -0.004843 26.863073 31.655290 25.698814 0.019056 -0.420046 -0.034562 16.290500 35.300549 24.161308 -0.034840 -0.062105 0.130323 22.118007 34.887739 20.236969 0.004439 0.124404 -0.038385 17.275362 35.824025 16.334247 0.004488 0.137956 0.026820 22.861574 26.998240 25.305815 -0.002265 0.056032 0.002855 24.146373 27.771305 22.831547 -0.013390 0.211636 -0.033467 32.187458 38.603130 17.974375 0.010113 0.088937 0.050410 23.152567 30.958283 21.855504 0.071703 0.114000 -0.018898 25.300890 35.671138 21.211168 0.122921 0.045205 -0.019046 23.340800 35.394003 18.103109 0.255332 -0.015649 -0.022947 20.858986 37.313573 26.644138 0.265709 0.012698 -0.007375 21.483771 32.763704 26.528125 0.086691 -0.010636 -0.015594 22.897723 29.670437 26.983538 -0.082954 0.112473 -0.023707 21.345205 34.578499 24.348467 -0.113228 0.046853 -0.008472 24.063144 33.386047 25.478399 -0.260128 -0.014369 -0.031269 23.032194 29.402619 22.046276 -0.269108 0.006794 -0.006027 23.373155 37.324248 25.025239 -0.088754 -0.008652 -0.010107 25.736146 33.550910 20.282107 
0.000000 0.000000 0.000000 -0.000000 0.000000 -0.000000 -0.002174 0.972724 0.028584 -0.000000 0.000000 -0.000000 0.058581 -0.082280 -0.017664 15.193959 37.368948 25.164381 0.043451 -0.386470 0.008037 28.779453 26.876880 23.593898 -0.014790 -0.426874 -0.037428 22.774605 30.354563 22.144330 0.041054 -0.060286 0.122042 30.733078 34.032913 15.492790 -0.060310 -0.090513 -0.013542 20.040844 29.598362 27.890157 -0.043257 -0.383688 -0.004843 23.180805 37.831557 32.522984 0.019055 -0.420046 -0.034562 20.618712 35.435776 18.098685 -0.034840 -0.062106 0.130323 26.445634 36.890306 24.362047 0.004439 0.124404 -0.038385 31.266120 38.333494 20.850573 0.004488 0.137956 0.026820 28.872873 35.797144 16.216568 -0.002265 0.056032 0.002855 21.428363 33.906398 23.658150 -0.013390 0.211636 -0.033468 29.587106 32.369745 13.332242 0.010113 0.088937 0.050410 36.673994 34.125449 15.533382 0.071703 0.114000 -0.018898 22.550780 34.891256 25.972851 0.122921 0.045205 -0.019046 27.506490 37.277591 25.581697 0.255332 -0.015649 -0.022946 14.431686 40.542743 29.201712 0.265709 0.012698 -0.007375 13.121593 32.172804 26.782350 0.086691 -0.010636 -0.015594 26.834697 34.452372 23.770163 -0.082954 0.112472 -0.023707 19.725976 32.389300 23.989262 -0.113228 0.046853 -0.008472 23.860434 28.477738 24.239339 -0.260128 -0.014369 -0.031269 26.110775 38.820869 24.302843 -0.269109 0.006794 -0.006027 10.804015 35.340806 32.597710 -0.088754 -0.008652 -0.010107 28.376646 36.410342 21.231790 
